<svg width="28" height="27" viewBox="0 0 28 27" fill="none" xmlns="http://www.w3.org/2000/svg">
<path d="M14 0.666626C12.249 0.666626 10.5152 1.0115 8.89754 1.68157C7.27987 2.35163 5.81001 3.33375 4.5719 4.57187C2.07141 7.07235 0.666656 10.4637 0.666656 14C0.666656 19.8933 4.49332 24.8933 9.78666 26.6666C10.4533 26.7733 10.6667 26.36 10.6667 26V23.7466C6.97332 24.5466 6.18666 21.96 6.18666 21.96C5.57332 20.4133 4.70666 20 4.70666 20C3.49332 19.1733 4.79999 19.2 4.79999 19.2C6.13332 19.2933 6.83999 20.5733 6.83999 20.5733C7.99999 22.6 9.95999 22 10.72 21.68C10.84 20.8133 11.1867 20.2266 11.56 19.8933C8.59999 19.56 5.49332 18.4133 5.49332 13.3333C5.49332 11.8533 5.99999 10.6666 6.86666 9.71996C6.73332 9.38663 6.26666 7.99996 6.99999 6.19996C6.99999 6.19996 8.11999 5.83996 10.6667 7.55996C11.72 7.26663 12.8667 7.11996 14 7.11996C15.1333 7.11996 16.28 7.26663 17.3333 7.55996C19.88 5.83996 21 6.19996 21 6.19996C21.7333 7.99996 21.2667 9.38663 21.1333 9.71996C22 10.6666 22.5067 11.8533 22.5067 13.3333C22.5067 18.4266 19.3867 19.5466 16.4133 19.88C16.8933 20.2933 17.3333 21.1066 17.3333 22.3466V26C17.3333 26.36 17.5467 26.7866 18.2267 26.6666C23.52 24.88 27.3333 19.8933 27.3333 14C27.3333 12.249 26.9884 10.5152 26.3184 8.89751C25.6483 7.27984 24.6662 5.80998 23.4281 4.57187C22.19 3.33375 20.7201 2.35163 19.1024 1.68157C17.4848 1.0115 15.7509 0.666626 14 0.666626Z" fill="#CCD7F7"/>
</svg>
