<svg width="28" height="27"    xmlns="http://www.w3.org/2000/svg">
  <symbol id="github" viewBox="0 0 28 27">
    <path
     d="M14 0.666626C12.249 0.666626 10.5152 1.0115 8.89754 1.68157C7.27987 2.35163 5.81001 3.33375 4.5719 4.57187C2.07141 7.07235 0.666656 10.4637 0.666656 14C0.666656 19.8933 4.49332 24.8933 9.78666 26.6666C10.4533 26.7733 10.6667 26.36 10.6667 26V23.7466C6.97332 24.5466 6.18666 21.96 6.18666 21.96C5.57332 20.4133 4.70666 20 4.70666 20C3.49332 19.1733 4.79999 19.2 4.79999 19.2C6.13332 19.2933 6.83999 20.5733 6.83999 20.5733C7.99999 22.6 9.95999 22 10.72 21.68C10.84 20.8133 11.1867 20.2266 11.56 19.8933C8.59999 19.56 5.49332 18.4133 5.49332 13.3333C5.49332 11.8533 5.99999 10.6666 6.86666 9.71996C6.73332 9.38663 6.26666 7.99996 6.99999 6.19996C6.99999 6.19996 8.11999 5.83996 10.6667 7.55996C11.72 7.26663 12.8667 7.11996 14 7.11996C15.1333 7.11996 16.28 7.26663 17.3333 7.55996C19.88 5.83996 21 6.19996 21 6.19996C21.7333 7.99996 21.2667 9.38663 21.1333 9.71996C22 10.6666 22.5067 11.8533 22.5067 13.3333C22.5067 18.4266 19.3867 19.5466 16.4133 19.88C16.8933 20.2933 17.3333 21.1066 17.3333 22.3466V26C17.3333 26.36 17.5467 26.7866 18.2267 26.6666C23.52 24.88 27.3333 19.8933 27.3333 14C27.3333 12.249 26.9884 10.5152 26.3184 8.89751C25.6483 7.27984 24.6662 5.80998 23.4281 4.57187C22.19 3.33375 20.7201 2.35163 19.1024 1.68157C17.4848 1.0115 15.7509 0.666626 14 0.666626Z" />

  </symbol>
  <symbol id="vk" viewBox="0 0 34 32"   >
    <path    fill-rule="evenodd" clip-rule="evenodd"
           d="M9.97286 4C8.55837 4 7.20182 4.5619 6.20162 5.5621C5.20143 6.56229 4.63953 7.91885 4.63953 9.33333V22.6667C4.63953 24.0812 5.20143 25.4377 6.20162 26.4379C7.20182 27.4381 8.55837 28 9.97286 28H23.3062C24.7207 28 26.0772 27.4381 27.0774 26.4379C28.0776 25.4377 28.6395 24.0812 28.6395 22.6667V9.33333C28.6395 7.91885 28.0776 6.56229 27.0774 5.5621C26.0772 4.5619 24.7207 4 23.3062 4H9.97286ZM23.7489 13.4067C23.9451 13.1125 24.0165 12.7523 23.9472 12.4055C23.8779 12.0587 23.6737 11.7536 23.3795 11.5573C23.0853 11.3611 22.7252 11.2897 22.3784 11.359C22.0315 11.4283 21.7265 11.6325 21.5302 11.9267C21.0582 12.5533 20.5635 13.1533 19.9849 13.6867C19.3142 14.3053 18.6355 14.7693 17.9742 15.044L17.9635 12.5107C17.9253 12.1863 17.7694 11.8873 17.5254 11.6703C17.2813 11.4533 16.9661 11.3334 16.6395 11.3333C15.9169 11.3747 15.3062 11.908 15.3062 12.6667V18.4973C12.7089 17.7773 11.3062 15.2573 11.3062 12.6667C11.3062 12.313 11.1657 11.9739 10.9157 11.7239C10.6656 11.4738 10.3265 11.3333 9.97286 11.3333C9.61924 11.3333 9.2801 11.4738 9.03005 11.7239C8.78 11.9739 8.63953 12.313 8.63953 12.6667C8.63953 17.5093 11.9862 21.3333 16.6395 21.3333C16.9931 21.3333 17.3323 21.1929 17.5823 20.9428C17.8324 20.6928 17.9729 20.3536 17.9729 20V17.916C19.7489 18.0573 21.4715 19.312 22.1142 20.596C22.1891 20.7581 22.2958 20.9035 22.4279 21.0236C22.5601 21.1437 22.715 21.236 22.8835 21.2951C23.052 21.3542 23.2307 21.3788 23.4089 21.3675C23.5871 21.3562 23.7612 21.3093 23.9209 21.2294C24.0806 21.1496 24.2227 21.0384 24.3386 20.9026C24.4546 20.7669 24.5421 20.6091 24.5959 20.4389C24.6497 20.2686 24.6688 20.0893 24.6521 19.9115C24.6353 19.7338 24.5829 19.5612 24.4982 19.404C23.8609 18.128 22.6715 16.9347 21.2075 16.156C21.4049 15.9947 21.6009 15.824 21.7942 15.6467C22.5288 14.9767 23.1846 14.2252 23.7489 13.4067Z" />
  </symbol>
  <symbol id="leetcode" viewBox="0 0 33 32">
    <path

      d="M18.2564 0.000227967C18.0149 0.00824432 17.7773 0.0639723 17.5574 0.164202C17.3375 0.264431 17.1396 0.407181 16.9751 0.584228L9.76706 8.30156L4.62839 13.8029C3.88 14.5998 3.32801 15.5604 3.01639 16.6082C2.94961 16.8333 2.89399 17.0616 2.84973 17.2922C2.64995 18.3357 2.67815 19.41 2.93239 20.4416C3.0454 20.9069 3.20118 21.3609 3.39773 21.7976C3.80534 22.7048 4.38026 23.5272 5.09239 24.2216L10.7951 29.8122L10.8471 29.8629C13.8444 32.7496 18.6497 32.7069 21.5977 29.7642L24.7924 26.5749C25.5124 25.8549 25.5124 24.6896 24.7964 23.9682C24.626 23.7969 24.4235 23.6609 24.2004 23.5679C23.9774 23.475 23.7382 23.427 23.4966 23.4266C23.2549 23.4262 23.0156 23.4735 22.7923 23.5658C22.5689 23.658 22.366 23.7934 22.1951 23.9642L19.0004 27.1536C18.2555 27.8887 17.2538 28.3051 16.2073 28.3145C15.1608 28.324 14.1517 27.9258 13.3937 27.2042L13.3671 27.1789L7.66573 21.5882C6.79639 20.7349 6.36973 19.6296 6.40173 18.5709C6.40807 18.3361 6.43755 18.1025 6.48973 17.8736C6.62374 17.2927 6.90841 16.7574 7.31506 16.3216L12.4524 10.8189C13.8631 9.30689 16.7244 9.12556 18.3591 10.4482L23.0271 14.2229C23.8177 14.8629 24.9751 14.7389 25.6137 13.9469C25.9199 13.5664 26.0627 13.0801 26.011 12.5945C25.9593 12.1089 25.7172 11.6636 25.3377 11.3562L20.6711 7.58156C19.6044 6.71889 18.3164 6.18823 16.9724 5.97889L19.6591 3.10156C19.9067 2.83527 20.0702 2.50174 20.1289 2.14286C20.1876 1.78398 20.139 1.41574 19.9892 1.0844C19.8393 0.753059 19.5949 0.473381 19.2866 0.280491C18.9783 0.0876013 18.6199 -0.00990143 18.2564 0.000227967ZM14.4351 17.0869C14.1932 17.0869 13.9537 17.1346 13.7303 17.2272C13.5069 17.3198 13.3039 17.4556 13.133 17.6268C12.9621 17.7979 12.8267 18.0011 12.7344 18.2246C12.642 18.4482 12.5947 18.6877 12.5951 18.9296C12.5947 19.1714 12.642 19.411 12.7344 19.6345C12.8267 19.8581 12.9621 20.0612 13.133 20.2324C13.3039 20.4035 13.5069 20.5393 13.7303 20.6319C13.9537 20.7245 14.1932 20.7722 14.4351 20.7722H27.9991C28.2409 20.7722 28.4804 20.7245 28.7038 20.6319C28.9272 20.5393 29.1302 20.4035 29.3011 20.2324C29.472 20.0612 29.6075 19.8581 29.6998 19.6345C29.7921 19.411 29.8394 19.1714 29.8391 18.9296C29.8394 18.6877 29.7921 18.4482 29.6998 18.2246C29.6075 18.0011 29.472 17.7979 29.3011 17.6268C29.1302 17.4556 28.9272 17.3198 28.7038 17.2272C28.4804 17.1346 28.2409 17.0869 27.9991 17.0869H14.4351Z" />

  </symbol>

  <symbol  viewBox="0 0 24 24" id="website-link">
    <path
      d="M14.6667 0V2.66667H19.4533L6.34667 15.7733L8.22667 17.6533L21.3333 4.54667V9.33333H24V0M21.3333 21.3333H2.66667V2.66667H12V0H2.66667C1.95942 0 1.28115 0.280951 0.781048 0.781048C0.280951 1.28115 0 1.95942 0 2.66667V21.3333C0 22.0406 0.280951 22.7189 0.781048 23.219C1.28115 23.719 1.95942 24 2.66667 24H21.3333C22.0406 24 22.7189 23.719 23.219 23.219C23.719 22.7189 24 22.0406 24 21.3333V12H21.3333V21.3333Z"  />
  </symbol>
</svg>


