<svg width="33" height="32" viewBox="0 0 33 32" fill="none" xmlns="http://www.w3.org/2000/svg">
<path d="M18.2564 0.000227967C18.0149 0.00824432 17.7773 0.0639723 17.5574 0.164202C17.3375 0.264431 17.1396 0.407181 16.9751 0.584228L9.76706 8.30156L4.62839 13.8029C3.88 14.5998 3.32801 15.5604 3.01639 16.6082C2.94961 16.8333 2.89399 17.0616 2.84973 17.2922C2.64995 18.3357 2.67815 19.41 2.93239 20.4416C3.0454 20.9069 3.20118 21.3609 3.39773 21.7976C3.80534 22.7048 4.38026 23.5272 5.09239 24.2216L10.7951 29.8122L10.8471 29.8629C13.8444 32.7496 18.6497 32.7069 21.5977 29.7642L24.7924 26.5749C25.5124 25.8549 25.5124 24.6896 24.7964 23.9682C24.626 23.7969 24.4235 23.6609 24.2004 23.5679C23.9774 23.475 23.7382 23.427 23.4966 23.4266C23.2549 23.4262 23.0156 23.4735 22.7923 23.5658C22.5689 23.658 22.366 23.7934 22.1951 23.9642L19.0004 27.1536C18.2555 27.8887 17.2538 28.3051 16.2073 28.3145C15.1608 28.324 14.1517 27.9258 13.3937 27.2042L13.3671 27.1789L7.66573 21.5882C6.79639 20.7349 6.36973 19.6296 6.40173 18.5709C6.40807 18.3361 6.43755 18.1025 6.48973 17.8736C6.62374 17.2927 6.90841 16.7574 7.31506 16.3216L12.4524 10.8189C13.8631 9.30689 16.7244 9.12556 18.3591 10.4482L23.0271 14.2229C23.8177 14.8629 24.9751 14.7389 25.6137 13.9469C25.9199 13.5664 26.0627 13.0801 26.011 12.5945C25.9593 12.1089 25.7172 11.6636 25.3377 11.3562L20.6711 7.58156C19.6044 6.71889 18.3164 6.18823 16.9724 5.97889L19.6591 3.10156C19.9067 2.83527 20.0702 2.50174 20.1289 2.14286C20.1876 1.78398 20.139 1.41574 19.9892 1.0844C19.8393 0.753059 19.5949 0.473381 19.2866 0.280491C18.9783 0.0876013 18.6199 -0.00990143 18.2564 0.000227967ZM14.4351 17.0869C14.1932 17.0869 13.9537 17.1346 13.7303 17.2272C13.5069 17.3198 13.3039 17.4556 13.133 17.6268C12.9621 17.7979 12.8267 18.0011 12.7344 18.2246C12.642 18.4482 12.5947 18.6877 12.5951 18.9296C12.5947 19.1714 12.642 19.411 12.7344 19.6345C12.8267 19.8581 12.9621 20.0612 13.133 20.2324C13.3039 20.4035 13.5069 20.5393 13.7303 20.6319C13.9537 20.7245 14.1932 20.7722 14.4351 20.7722H27.9991C28.2409 20.7722 28.4804 20.7245 28.7038 20.6319C28.9272 20.5393 29.1302 20.4035 29.3011 20.2324C29.472 20.0612 29.6075 19.8581 29.6998 19.6345C29.7921 19.411 29.8394 19.1714 29.8391 18.9296C29.8394 18.6877 29.7921 18.4482 29.6998 18.2246C29.6075 18.0011 29.472 17.7979 29.3011 17.6268C29.1302 17.4556 28.9272 17.3198 28.7038 17.2272C28.4804 17.1346 28.2409 17.0869 27.9991 17.0869H14.4351Z" fill="#CCD7F7"/>
</svg>
