<svg width="170" height="29" viewBox="0 0 170 29" fill="none" xmlns="http://www.w3.org/2000/svg">
<path d="M168.494 16.0369V17.9716C167.511 17.9716 166.827 18.1676 166.44 18.5597C166.054 18.946 165.861 19.5682 165.861 20.4261V22.0284C165.861 23.1705 165.69 24.0682 165.349 24.7216C165.014 25.375 164.551 25.8551 163.96 26.1619C163.375 26.4688 162.696 26.6619 161.923 26.7415C161.156 26.8267 160.335 26.8693 159.46 26.8693V23.8097C160.142 23.8097 160.651 23.7273 160.986 23.5625C161.327 23.3977 161.554 23.1477 161.668 22.8125C161.781 22.4773 161.838 22.054 161.838 21.5426V19.3608C161.838 18.929 161.926 18.5142 162.102 18.1165C162.278 17.7187 162.602 17.3665 163.074 17.0597C163.545 16.7472 164.216 16.5 165.085 16.3182C165.96 16.1307 167.097 16.0369 168.494 16.0369ZM159.46 5.38352C160.335 5.38352 161.156 5.42614 161.923 5.51136C162.696 5.59091 163.375 5.78409 163.96 6.09091C164.551 6.39773 165.014 6.87784 165.349 7.53125C165.69 8.18466 165.861 9.08239 165.861 10.2244V11.8352C165.861 12.6875 166.054 13.3097 166.44 13.7017C166.827 14.0937 167.511 14.2898 168.494 14.2898V16.2159C167.097 16.2159 165.96 16.125 165.085 15.9432C164.216 15.7614 163.545 15.5142 163.074 15.2017C162.602 14.8892 162.278 14.5341 162.102 14.1364C161.926 13.7386 161.838 13.3239 161.838 12.892V10.7102C161.838 10.1989 161.781 9.77557 161.668 9.44034C161.554 9.10511 161.327 8.85511 160.986 8.69034C160.651 8.52557 160.142 8.44318 159.46 8.44318V5.38352ZM168.494 14.2898V17.9716H165.094V14.2898H168.494Z" fill="#08FCD8"/>
<path d="M0.698864 16.2159V14.2898C1.6875 14.2898 2.37216 14.0937 2.75284 13.7017C3.1392 13.3097 3.33239 12.6875 3.33239 11.8352V10.2244C3.33239 9.08239 3.5 8.18466 3.83523 7.53125C4.17614 6.87784 4.6392 6.39773 5.22443 6.09091C5.81534 5.78409 6.49716 5.59091 7.26989 5.51136C8.04261 5.42614 8.86364 5.38352 9.73295 5.38352V8.44318C9.05114 8.44318 8.53977 8.52557 8.19886 8.69034C7.86364 8.85511 7.6392 9.10511 7.52557 9.44034C7.41193 9.77557 7.35511 10.1989 7.35511 10.7102V12.892C7.35511 13.3239 7.26705 13.7386 7.09091 14.1364C6.91477 14.5341 6.59091 14.8892 6.11932 15.2017C5.64773 15.5142 4.97443 15.7614 4.09943 15.9432C3.23011 16.125 2.09659 16.2159 0.698864 16.2159ZM9.73295 26.8693C8.86364 26.8693 8.04261 26.8267 7.26989 26.7415C6.49716 26.6619 5.81534 26.4688 5.22443 26.1619C4.6392 25.8551 4.17614 25.375 3.83523 24.7216C3.5 24.0682 3.33239 23.1705 3.33239 22.0284V20.4261C3.33239 19.5682 3.1392 18.946 2.75284 18.5597C2.37216 18.1676 1.6875 17.9716 0.698864 17.9716V16.0369C2.09659 16.0369 3.23011 16.1307 4.09943 16.3182C4.97443 16.5 5.64773 16.7472 6.11932 17.0597C6.59091 17.3665 6.91477 17.7187 7.09091 18.1165C7.26705 18.5142 7.35511 18.929 7.35511 19.3608V21.5426C7.35511 22.054 7.41193 22.4773 7.52557 22.8125C7.6392 23.1477 7.86364 23.3977 8.19886 23.5625C8.53977 23.7273 9.05114 23.8097 9.73295 23.8097V26.8693ZM0.698864 17.9716V14.2898H4.09943V17.9716H0.698864Z" fill="#08FCD8"/>
<path d="M22.336 23L21.592 19.376H17.368L16.624 23H12.736L17.224 6.368H21.832L26.296 23H22.336ZM17.944 16.616H21.016L19.48 9.176L17.944 16.616ZM34.7192 9.848C35.7112 9.848 36.4872 10.184 37.0472 10.856C37.6233 11.512 37.9113 12.416 37.9113 13.568V23H34.2152V14.072C34.2152 13.544 34.1352 13.176 33.9753 12.968C33.8312 12.744 33.6072 12.632 33.3033 12.632C32.9832 12.632 32.6712 12.768 32.3672 13.04C32.0792 13.296 31.7752 13.68 31.4552 14.192V23H27.7592V10.256H30.9992L31.2632 11.768C31.7272 11.128 32.2392 10.648 32.7993 10.328C33.3593 10.008 33.9992 9.848 34.7192 9.848ZM51.3852 5.192V23H48.1212L47.9532 21.584C47.1372 22.8 46.0572 23.408 44.7132 23.408C43.2892 23.408 42.2012 22.816 41.4492 21.632C40.6972 20.432 40.3212 18.76 40.3212 16.616C40.3212 15.272 40.5132 14.088 40.8972 13.064C41.2972 12.04 41.8492 11.248 42.5532 10.688C43.2732 10.128 44.0972 9.848 45.0252 9.848C46.0972 9.848 46.9852 10.24 47.6892 11.024V4.808L51.3852 5.192ZM45.8892 20.696C46.2572 20.696 46.5852 20.592 46.8732 20.384C47.1612 20.16 47.4332 19.824 47.6892 19.376V13.592C47.4332 13.24 47.1772 12.984 46.9212 12.824C46.6812 12.648 46.3932 12.56 46.0572 12.56C44.7772 12.56 44.1372 13.912 44.1372 16.616C44.1372 18.136 44.2892 19.2 44.5932 19.808C44.8972 20.4 45.3292 20.696 45.8892 20.696ZM60.9113 9.896C61.3273 9.896 61.6953 9.96 62.0153 10.088L61.4153 13.64C61.0793 13.544 60.7433 13.496 60.4073 13.496C59.7513 13.496 59.2473 13.752 58.8953 14.264C58.5433 14.76 58.2713 15.504 58.0793 16.496V23H54.3833V10.256H57.6233L57.9113 12.488C58.1993 11.656 58.5993 11.016 59.1113 10.568C59.6233 10.12 60.2233 9.896 60.9113 9.896ZM73.3167 16.376C73.3167 16.888 73.2927 17.336 73.2447 17.72H66.1407C66.2367 18.84 66.4847 19.616 66.8847 20.048C67.2847 20.48 67.8527 20.696 68.5887 20.696C69.0687 20.696 69.5247 20.608 69.9567 20.432C70.3887 20.256 70.8607 19.984 71.3727 19.616L72.8847 21.656C71.5727 22.824 70.0447 23.408 68.3007 23.408C66.3807 23.408 64.9167 22.816 63.9087 21.632C62.9167 20.432 62.4207 18.784 62.4207 16.688C62.4207 14.64 62.9007 12.992 63.8607 11.744C64.8207 10.48 66.1727 9.848 67.9167 9.848C69.5967 9.848 70.9167 10.416 71.8767 11.552C72.8367 12.672 73.3167 14.28 73.3167 16.376ZM69.6927 15.32C69.6927 14.312 69.5567 13.56 69.2847 13.064C69.0287 12.552 68.5887 12.296 67.9647 12.296C67.4047 12.296 66.9727 12.536 66.6687 13.016C66.3647 13.48 66.1807 14.304 66.1167 15.488H69.6927V15.32ZM82.1013 23.024C81.1893 26.336 78.9653 28.104 75.4293 28.328L75.0213 25.76C76.1253 25.6 76.9493 25.312 77.4933 24.896C78.0373 24.496 78.4693 23.864 78.7893 23H77.4693L74.0613 10.256H77.8533L79.8213 20.648L82.0053 10.256H85.7253L82.1013 23.024ZM102.276 6.368L101.868 9.104H96.7075V13.208H101.22V15.896H96.7075V20.216H102.228V23H92.8675V6.368H102.276ZM108.677 9.848C109.525 9.848 110.317 9.984 111.053 10.256C111.789 10.528 112.437 10.912 112.997 11.408L111.653 13.424C110.693 12.8 109.789 12.488 108.941 12.488C108.493 12.488 108.149 12.584 107.909 12.776C107.669 12.952 107.549 13.2 107.549 13.52C107.549 13.76 107.605 13.968 107.717 14.144C107.845 14.304 108.077 14.472 108.413 14.648C108.749 14.808 109.253 15.008 109.925 15.248C111.109 15.648 111.981 16.152 112.541 16.76C113.117 17.368 113.405 18.192 113.405 19.232C113.405 20.512 112.917 21.528 111.941 22.28C110.965 23.032 109.717 23.408 108.197 23.408C107.221 23.408 106.309 23.24 105.461 22.904C104.629 22.568 103.917 22.112 103.325 21.536L105.077 19.568C106.069 20.368 107.061 20.768 108.053 20.768C108.549 20.768 108.933 20.664 109.205 20.456C109.493 20.232 109.637 19.928 109.637 19.544C109.637 19.24 109.573 18.992 109.445 18.8C109.333 18.608 109.109 18.424 108.773 18.248C108.453 18.072 107.949 17.864 107.261 17.624C106.093 17.224 105.237 16.72 104.693 16.112C104.165 15.488 103.901 14.704 103.901 13.76C103.901 13.024 104.093 12.36 104.477 11.768C104.861 11.176 105.413 10.712 106.133 10.376C106.853 10.024 107.701 9.848 108.677 9.848ZM128.417 9.848C129.329 9.848 130.057 10.184 130.601 10.856C131.161 11.528 131.441 12.432 131.441 13.568V23H127.793V14.048C127.793 13.088 127.505 12.608 126.929 12.608C126.369 12.608 125.833 13.112 125.321 14.12V23H121.673V14.048C121.673 13.088 121.393 12.608 120.833 12.608C120.513 12.608 120.225 12.736 119.969 12.992C119.713 13.248 119.457 13.624 119.201 14.12V23H115.529V10.256H118.769L119.009 11.768C119.889 10.488 120.993 9.848 122.321 9.848C122.961 9.848 123.513 10.024 123.977 10.376C124.441 10.712 124.785 11.208 125.009 11.864C125.473 11.192 125.977 10.688 126.521 10.352C127.081 10.016 127.713 9.848 128.417 9.848ZM143.698 19.472C143.698 19.904 143.754 20.224 143.866 20.432C143.978 20.64 144.17 20.8 144.442 20.912L143.674 23.336C142.938 23.272 142.338 23.104 141.874 22.832C141.41 22.56 141.05 22.136 140.794 21.56C140.01 22.792 138.866 23.408 137.362 23.408C136.21 23.408 135.29 23.048 134.602 22.328C133.93 21.592 133.594 20.624 133.594 19.424C133.594 18.032 134.058 16.968 134.986 16.232C135.93 15.496 137.29 15.128 139.066 15.128H140.074V14.528C140.074 13.776 139.938 13.256 139.666 12.968C139.394 12.664 138.914 12.512 138.226 12.512C137.442 12.512 136.442 12.728 135.226 13.16L134.386 10.784C135.09 10.48 135.842 10.248 136.642 10.088C137.442 9.928 138.186 9.848 138.874 9.848C140.522 9.848 141.738 10.216 142.522 10.952C143.306 11.688 143.698 12.808 143.698 14.312V19.472ZM138.466 20.768C138.802 20.768 139.106 20.664 139.378 20.456C139.666 20.248 139.898 19.952 140.074 19.568V17.192H139.402C138.65 17.192 138.098 17.352 137.746 17.672C137.394 17.976 137.218 18.456 137.218 19.112C137.218 19.656 137.322 20.072 137.53 20.36C137.754 20.632 138.066 20.768 138.466 20.768ZM153.683 9.848C154.675 9.848 155.451 10.184 156.011 10.856C156.587 11.512 156.875 12.416 156.875 13.568V23H153.179V14.072C153.179 13.544 153.099 13.176 152.939 12.968C152.795 12.744 152.571 12.632 152.267 12.632C151.947 12.632 151.635 12.768 151.331 13.04C151.043 13.296 150.739 13.68 150.419 14.192V23H146.723V10.256H149.963L150.227 11.768C150.691 11.128 151.203 10.648 151.763 10.328C152.323 10.008 152.963 9.848 153.683 9.848Z" fill="#CCD7F7"/>
</svg>
