<svg width="34" height="32" viewBox="0 0 34 32" fill="none" xmlns="http://www.w3.org/2000/svg">
<path fill-rule="evenodd" clip-rule="evenodd" d="M9.97286 4C8.55837 4 7.20182 4.5619 6.20162 5.5621C5.20143 6.56229 4.63953 7.91885 4.63953 9.33333V22.6667C4.63953 24.0812 5.20143 25.4377 6.20162 26.4379C7.20182 27.4381 8.55837 28 9.97286 28H23.3062C24.7207 28 26.0772 27.4381 27.0774 26.4379C28.0776 25.4377 28.6395 24.0812 28.6395 22.6667V9.33333C28.6395 7.91885 28.0776 6.56229 27.0774 5.5621C26.0772 4.5619 24.7207 4 23.3062 4H9.97286ZM23.7489 13.4067C23.9451 13.1125 24.0165 12.7523 23.9472 12.4055C23.8779 12.0587 23.6737 11.7536 23.3795 11.5573C23.0853 11.3611 22.7252 11.2897 22.3784 11.359C22.0315 11.4283 21.7265 11.6325 21.5302 11.9267C21.0582 12.5533 20.5635 13.1533 19.9849 13.6867C19.3142 14.3053 18.6355 14.7693 17.9742 15.044L17.9635 12.5107C17.9253 12.1863 17.7694 11.8873 17.5254 11.6703C17.2813 11.4533 16.9661 11.3334 16.6395 11.3333C15.9169 11.3747 15.3062 11.908 15.3062 12.6667V18.4973C12.7089 17.7773 11.3062 15.2573 11.3062 12.6667C11.3062 12.313 11.1657 11.9739 10.9157 11.7239C10.6656 11.4738 10.3265 11.3333 9.97286 11.3333C9.61924 11.3333 9.2801 11.4738 9.03005 11.7239C8.78 11.9739 8.63953 12.313 8.63953 12.6667C8.63953 17.5093 11.9862 21.3333 16.6395 21.3333C16.9931 21.3333 17.3323 21.1929 17.5823 20.9428C17.8324 20.6928 17.9729 20.3536 17.9729 20V17.916C19.7489 18.0573 21.4715 19.312 22.1142 20.596C22.1891 20.7581 22.2958 20.9035 22.4279 21.0236C22.5601 21.1437 22.715 21.236 22.8835 21.2951C23.052 21.3542 23.2307 21.3788 23.4089 21.3675C23.5871 21.3562 23.7612 21.3093 23.9209 21.2294C24.0806 21.1496 24.2227 21.0384 24.3386 20.9026C24.4546 20.7669 24.5421 20.6091 24.5959 20.4389C24.6497 20.2686 24.6688 20.0893 24.6521 19.9115C24.6353 19.7338 24.5829 19.5612 24.4982 19.404C23.8609 18.128 22.6715 16.9347 21.2075 16.156C21.4049 15.9947 21.6009 15.824 21.7942 15.6467C22.5288 14.9767 23.1846 14.2252 23.7489 13.4067Z" fill="#CCD7F7"/>
</svg>
